# xmcd
#
# Track frame offsets:
#	150
#	16233
#	30376
#	45143
#	58537
#	71931
#	82174
#	94937
#	106607
#	119066
#	131405
#
# Disc length: 2015 seconds
#
# Revision: 0
# Processed by: cddbd v1.5.2PL0 Copyright (c) Steve Scherf et al.
# Submitted via: dBpowerAMP V4.0
#
DISCID=8a07dd0b
DTITLE=Efi Thodi - Kalanta
DYEAR=2006
DGENRE=Christian Rap
TTITLE0=Last Christmas
TTITLE1=agia nyxta
TTITLE2=drummer
TTITLE3=Jingle Bells
TTITLE4=trigona
TTITLE5=kalanta
TTITLE6=kalanta 2
TTITLE7=xronos
TTITLE8=elato
TTITLE9=O Tannenbaum
TTITLE10=christmas time
EXTD=
EXTT0=
EXTT1=
EXTT2=
EXTT3=
EXTT4=
EXTT5=
EXTT6=
EXTT7=
EXTT8=
EXTT9=
EXTT10=
PLAYORDER=
